<svg viewBox="0 0 1280 475" xmlns="http://www.w3.org/2000/svg">
  <defs>
    <pattern id="dotGrid" width="22" height="22" patternUnits="userSpaceOnUse">
      <circle cx="1" cy="1" r="0.8" fill="#D4D4D4" opacity="0.4"/>
    </pattern>
  </defs>

  <!-- Background -->
  <rect width="1280" height="475" fill="#FAFAF9"/>
  <rect width="1280" height="475" fill="url(#dotGrid)"/>

  <!-- Decorative node cluster top-left -->
  <g opacity="0.6">
    <circle cx="40" cy="40" r="2.5" fill="#D4D4D4"/>
    <circle cx="58" cy="35" r="2.5" fill="#D4D4D4"/>
    <circle cx="52" cy="52" r="2.5" fill="#D4D4D4"/>
    <line x1="40" y1="40" x2="58" y2="35" stroke="#D4D4D4" stroke-width="0.6"/>
    <line x1="40" y1="40" x2="52" y2="52" stroke="#D4D4D4" stroke-width="0.6"/>
  </g>

  <!-- Decorative node cluster bottom-right -->
  <g opacity="0.6">
    <circle cx="1240" cy="450" r="2.5" fill="#D4D4D4"/>
    <circle cx="1222" cy="445" r="2.5" fill="#D4D4D4"/>
    <circle cx="1228" cy="460" r="2.5" fill="#D4D4D4"/>
    <line x1="1240" y1="450" x2="1222" y2="445" stroke="#D4D4D4" stroke-width="0.6"/>
    <line x1="1240" y1="450" x2="1228" y2="460" stroke="#D4D4D4" stroke-width="0.6"/>
  </g>

  <!-- Title block -->
  <text x="60" y="74" font-family="'PingFang SC', 'Microsoft YaHei', 'Hiragino Sans GB', 'Noto Sans SC', system-ui, -apple-system, sans-serif" font-size="36" font-weight="600" fill="#171717">AI 内容生产与跨境增长工作流</text>
  <text x="60" y="106" font-family="'SF Mono', 'JetBrains Mono', 'Consolas', 'Menlo', monospace" font-size="15" fill="#737373" letter-spacing="0.5">AI-assisted content workflow for cross-border e-commerce</text>

  <!-- Card 01 -->
  <g>
    <rect x="60" y="150" width="280" height="280" rx="6" fill="#FFFFFF" stroke="#E5E5E5" stroke-width="1"/>
    <rect x="60" y="150" width="280" height="8" rx="6" fill="#7B95B2"/>
    <text x="84" y="194" font-family="'SF Mono', 'JetBrains Mono', 'Consolas', 'Menlo', monospace" font-size="13" fill="#A3A3A3" letter-spacing="2">01.</text>
    <circle cx="84" cy="230" r="4" fill="#7B95B2"/>
    <text x="98" y="236" font-family="'PingFang SC', 'Microsoft YaHei', 'Hiragino Sans GB', 'Noto Sans SC', system-ui, -apple-system, sans-serif" font-size="22" font-weight="600" fill="#171717">商品与品牌输入</text>
    <line x1="84" y1="260" x2="316" y2="260" stroke="#EEEEEE" stroke-width="1"/>
    <rect x="84" y="300" width="7" height="2" fill="#7B95B2"/>
    <text x="98" y="305" font-family="'PingFang SC', 'Microsoft YaHei', 'Hiragino Sans GB', 'Noto Sans SC', system-ui, -apple-system, sans-serif" font-size="16" fill="#262626">SKU 信息</text>
    <rect x="84" y="344" width="7" height="2" fill="#7B95B2"/>
    <text x="98" y="349" font-family="'PingFang SC', 'Microsoft YaHei', 'Hiragino Sans GB', 'Noto Sans SC', system-ui, -apple-system, sans-serif" font-size="16" fill="#262626">品牌语气</text>
    <rect x="84" y="388" width="7" height="2" fill="#7B95B2"/>
    <text x="98" y="393" font-family="'PingFang SC', 'Microsoft YaHei', 'Hiragino Sans GB', 'Noto Sans SC', system-ui, -apple-system, sans-serif" font-size="16" fill="#262626">目标市场</text>
  </g>

  <!-- Connector 01-02 -->
  <line x1="340" y1="290" x2="360" y2="290" stroke="#D4D4D4" stroke-width="1" stroke-dasharray="4,3"/>
  <circle cx="350" cy="290" r="2.5" fill="#D4D4D4"/>

  <!-- Card 02 -->
  <g>
    <rect x="360" y="150" width="280" height="280" rx="6" fill="#FFFFFF" stroke="#E5E5E5" stroke-width="1"/>
    <rect x="360" y="150" width="280" height="8" rx="6" fill="#8FAB8A"/>
    <text x="384" y="194" font-family="'SF Mono', 'JetBrains Mono', 'Consolas', 'Menlo', monospace" font-size="13" fill="#A3A3A3" letter-spacing="2">02.</text>
    <circle cx="384" cy="230" r="4" fill="#8FAB8A"/>
    <text x="398" y="236" font-family="'PingFang SC', 'Microsoft YaHei', 'Hiragino Sans GB', 'Noto Sans SC', system-ui, -apple-system, sans-serif" font-size="22" font-weight="600" fill="#171717">AI 内容生成</text>
    <line x1="384" y1="260" x2="616" y2="260" stroke="#EEEEEE" stroke-width="1"/>
    <rect x="384" y="300" width="7" height="2" fill="#8FAB8A"/>
    <text x="398" y="305" font-family="'PingFang SC', 'Microsoft YaHei', 'Hiragino Sans GB', 'Noto Sans SC', system-ui, -apple-system, sans-serif" font-size="16" fill="#262626">Prompt 模板</text>
    <rect x="384" y="344" width="7" height="2" fill="#8FAB8A"/>
    <text x="398" y="349" font-family="'PingFang SC', 'Microsoft YaHei', 'Hiragino Sans GB', 'Noto Sans SC', system-ui, -apple-system, sans-serif" font-size="16" fill="#262626">文案变体</text>
    <rect x="384" y="388" width="7" height="2" fill="#8FAB8A"/>
    <text x="398" y="393" font-family="'PingFang SC', 'Microsoft YaHei', 'Hiragino Sans GB', 'Noto Sans SC', system-ui, -apple-system, sans-serif" font-size="16" fill="#262626">视觉方向</text>
  </g>

  <!-- Connector 02-03 -->
  <line x1="640" y1="290" x2="660" y2="290" stroke="#D4D4D4" stroke-width="1" stroke-dasharray="4,3"/>
  <circle cx="650" cy="290" r="2.5" fill="#D4D4D4"/>

  <!-- Card 03 -->
  <g>
    <rect x="660" y="150" width="280" height="280" rx="6" fill="#FFFFFF" stroke="#E5E5E5" stroke-width="1"/>
    <rect x="660" y="150" width="280" height="8" rx="6" fill="#C19A6B"/>
    <text x="684" y="194" font-family="'SF Mono', 'JetBrains Mono', 'Consolas', 'Menlo', monospace" font-size="13" fill="#A3A3A3" letter-spacing="2">03.</text>
    <circle cx="684" cy="230" r="4" fill="#C19A6B"/>
    <text x="698" y="236" font-family="'PingFang SC', 'Microsoft YaHei', 'Hiragino Sans GB', 'Noto Sans SC', system-ui, -apple-system, sans-serif" font-size="22" font-weight="600" fill="#171717">本地化适配</text>
    <line x1="684" y1="260" x2="916" y2="260" stroke="#EEEEEE" stroke-width="1"/>
    <rect x="684" y="300" width="7" height="2" fill="#C19A6B"/>
    <text x="698" y="305" font-family="'PingFang SC', 'Microsoft YaHei', 'Hiragino Sans GB', 'Noto Sans SC', system-ui, -apple-system, sans-serif" font-size="16" fill="#262626">语言表达</text>
    <rect x="684" y="344" width="7" height="2" fill="#C19A6B"/>
    <text x="698" y="349" font-family="'PingFang SC', 'Microsoft YaHei', 'Hiragino Sans GB', 'Noto Sans SC', system-ui, -apple-system, sans-serif" font-size="16" fill="#262626">文化语境</text>
    <rect x="684" y="388" width="7" height="2" fill="#C19A6B"/>
    <text x="698" y="393" font-family="'PingFang SC', 'Microsoft YaHei', 'Hiragino Sans GB', 'Noto Sans SC', system-ui, -apple-system, sans-serif" font-size="16" fill="#262626">消费习惯</text>
  </g>

  <!-- Connector 03-04 -->
  <line x1="940" y1="290" x2="960" y2="290" stroke="#D4D4D4" stroke-width="1" stroke-dasharray="4,3"/>
  <circle cx="950" cy="290" r="2.5" fill="#D4D4D4"/>

  <!-- Card 04 -->
  <g>
    <rect x="960" y="150" width="280" height="280" rx="6" fill="#FFFFFF" stroke="#E5E5E5" stroke-width="1"/>
    <rect x="960" y="150" width="280" height="8" rx="6" fill="#8B8680"/>
    <text x="984" y="194" font-family="'SF Mono', 'JetBrains Mono', 'Consolas', 'Menlo', monospace" font-size="13" fill="#A3A3A3" letter-spacing="2">04.</text>
    <circle cx="984" cy="230" r="4" fill="#8B8680"/>
    <text x="998" y="236" font-family="'PingFang SC', 'Microsoft YaHei', 'Hiragino Sans GB', 'Noto Sans SC', system-ui, -apple-system, sans-serif" font-size="22" font-weight="600" fill="#171717">内容落地与转化支持</text>
    <line x1="984" y1="260" x2="1216" y2="260" stroke="#EEEEEE" stroke-width="1"/>
    <rect x="984" y="300" width="7" height="2" fill="#8B8680"/>
    <text x="998" y="305" font-family="'PingFang SC', 'Microsoft YaHei', 'Hiragino Sans GB', 'Noto Sans SC', system-ui, -apple-system, sans-serif" font-size="16" fill="#262626">商品详情素材</text>
    <rect x="984" y="344" width="7" height="2" fill="#8B8680"/>
    <text x="998" y="349" font-family="'PingFang SC', 'Microsoft YaHei', 'Hiragino Sans GB', 'Noto Sans SC', system-ui, -apple-system, sans-serif" font-size="16" fill="#262626">本地化卖点文案</text>
    <rect x="984" y="388" width="7" height="2" fill="#8B8680"/>
    <text x="998" y="393" font-family="'PingFang SC', 'Microsoft YaHei', 'Hiragino Sans GB', 'Noto Sans SC', system-ui, -apple-system, sans-serif" font-size="16" fill="#262626">页面内容优化</text>
  </g>
</svg>
