<svg viewBox="0 0 1280 620" xmlns="http://www.w3.org/2000/svg">
  <defs>
    <pattern id="dotGrid" width="22" height="22" patternUnits="userSpaceOnUse">
      <circle cx="1" cy="1" r="0.8" fill="#D4D4D4" opacity="0.4"/>
    </pattern>
  </defs>
  
  <!-- Background -->
  <rect width="1280" height="620" fill="#FAFAF9"/>
  <rect width="1280" height="620" fill="url(#dotGrid)"/>
  
  <!-- Decorative node cluster top-left -->
  <g opacity="0.6">
    <circle cx="40" cy="40" r="2.5" fill="#D4D4D4"/>
    <circle cx="58" cy="35" r="2.5" fill="#D4D4D4"/>
    <circle cx="52" cy="52" r="2.5" fill="#D4D4D4"/>
    <line x1="40" y1="40" x2="58" y2="35" stroke="#D4D4D4" stroke-width="0.6"/>
    <line x1="40" y1="40" x2="52" y2="52" stroke="#D4D4D4" stroke-width="0.6"/>
  </g>
  
  <!-- Decorative node cluster bottom-right -->
  <g opacity="0.6">
    <circle cx="1240" cy="580" r="2.5" fill="#D4D4D4"/>
    <circle cx="1222" cy="575" r="2.5" fill="#D4D4D4"/>
    <circle cx="1228" cy="592" r="2.5" fill="#D4D4D4"/>
    <line x1="1240" y1="580" x2="1222" y2="575" stroke="#D4D4D4" stroke-width="0.6"/>
    <line x1="1240" y1="580" x2="1228" y2="592" stroke="#D4D4D4" stroke-width="0.6"/>
  </g>
  
  <!-- Title block -->
  <text x="60" y="75" font-family="'PingFang SC', 'Microsoft YaHei', 'Hiragino Sans GB', 'Noto Sans SC', system-ui, -apple-system, sans-serif" font-size="32" font-weight="600" fill="#171717">AI 内容生产与跨境增长工作流</text>
  <text x="60" y="102" font-family="'SF Mono', 'JetBrains Mono', 'Consolas', 'Menlo', monospace" font-size="13" fill="#737373" letter-spacing="0.5">AI-assisted content workflow for cross-border e-commerce</text>
  
  <!-- Card 01 -->
  <g>
    <rect x="60" y="160" width="280" height="300" rx="6" fill="#FFFFFF" stroke="#E5E5E5" stroke-width="1"/>
    <rect x="60" y="160" width="280" height="8" rx="6" fill="#7B95B2"/>
    <text x="84" y="198" font-family="'SF Mono', 'JetBrains Mono', 'Consolas', 'Menlo', monospace" font-size="11" fill="#A3A3A3" letter-spacing="2">01.</text>
    <circle cx="84" cy="226" r="3.5" fill="#7B95B2"/>
    <text x="96" y="231" font-family="'PingFang SC', 'Microsoft YaHei', 'Hiragino Sans GB', 'Noto Sans SC', system-ui, -apple-system, sans-serif" font-size="19" font-weight="600" fill="#171717">商品与品牌输入</text>
    <line x1="84" y1="250" x2="316" y2="250" stroke="#EEEEEE" stroke-width="1"/>
    <rect x="84" y="278" width="6" height="1.5" fill="#7B95B2"/>
    <text x="96" y="282" font-family="'PingFang SC', 'Microsoft YaHei', 'Hiragino Sans GB', 'Noto Sans SC', system-ui, -apple-system, sans-serif" font-size="14" fill="#262626">SKU 信息</text>
    <rect x="84" y="308" width="6" height="1.5" fill="#7B95B2"/>
    <text x="96" y="312" font-family="'PingFang SC', 'Microsoft YaHei', 'Hiragino Sans GB', 'Noto Sans SC', system-ui, -apple-system, sans-serif" font-size="14" fill="#262626">品牌语气</text>
    <rect x="84" y="338" width="6" height="1.5" fill="#7B95B2"/>
    <text x="96" y="342" font-family="'PingFang SC', 'Microsoft YaHei', 'Hiragino Sans GB', 'Noto Sans SC', system-ui, -apple-system, sans-serif" font-size="14" fill="#262626">目标市场</text>
  </g>
  
  <!-- Connector 01-02 -->
  <line x1="340" y1="310" x2="360" y2="310" stroke="#D4D4D4" stroke-width="1" stroke-dasharray="4,3"/>
  <circle cx="350" cy="310" r="2.5" fill="#D4D4D4"/>
  
  <!-- Card 02 -->
  <g>
    <rect x="360" y="160" width="280" height="300" rx="6" fill="#FFFFFF" stroke="#E5E5E5" stroke-width="1"/>
    <rect x="360" y="160" width="280" height="8" rx="6" fill="#8FAB8A"/>
    <text x="384" y="198" font-family="'SF Mono', 'JetBrains Mono', 'Consolas', 'Menlo', monospace" font-size="11" fill="#A3A3A3" letter-spacing="2">02.</text>
    <circle cx="384" cy="226" r="3.5" fill="#8FAB8A"/>
    <text x="396" y="231" font-family="'PingFang SC', 'Microsoft YaHei', 'Hiragino Sans GB', 'Noto Sans SC', system-ui, -apple-system, sans-serif" font-size="19" font-weight="600" fill="#171717">AI 内容生成</text>
    <line x1="384" y1="250" x2="616" y2="250" stroke="#EEEEEE" stroke-width="1"/>
    <rect x="384" y="278" width="6" height="1.5" fill="#8FAB8A"/>
    <text x="396" y="282" font-family="'PingFang SC', 'Microsoft YaHei', 'Hiragino Sans GB', 'Noto Sans SC', system-ui, -apple-system, sans-serif" font-size="14" fill="#262626">Prompt 模板</text>
    <rect x="384" y="308" width="6" height="1.5" fill="#8FAB8A"/>
    <text x="396" y="312" font-family="'PingFang SC', 'Microsoft YaHei', 'Hiragino Sans GB', 'Noto Sans SC', system-ui, -apple-system, sans-serif" font-size="14" fill="#262626">文案变体</text>
    <rect x="384" y="338" width="6" height="1.5" fill="#8FAB8A"/>
    <text x="396" y="342" font-family="'PingFang SC', 'Microsoft YaHei', 'Hiragino Sans GB', 'Noto Sans SC', system-ui, -apple-system, sans-serif" font-size="14" fill="#262626">视觉方向</text>
  </g>
  
  <!-- Connector 02-03 -->
  <line x1="640" y1="310" x2="660" y2="310" stroke="#D4D4D4" stroke-width="1" stroke-dasharray="4,3"/>
  <circle cx="650" cy="310" r="2.5" fill="#D4D4D4"/>
  
  <!-- Card 03 -->
  <g>
    <rect x="660" y="160" width="280" height="300" rx="6" fill="#FFFFFF" stroke="#E5E5E5" stroke-width="1"/>
    <rect x="660" y="160" width="280" height="8" rx="6" fill="#C19A6B"/>
    <text x="684" y="198" font-family="'SF Mono', 'JetBrains Mono', 'Consolas', 'Menlo', monospace" font-size="11" fill="#A3A3A3" letter-spacing="2">03.</text>
    <circle cx="684" cy="226" r="3.5" fill="#C19A6B"/>
    <text x="696" y="231" font-family="'PingFang SC', 'Microsoft YaHei', 'Hiragino Sans GB', 'Noto Sans SC', system-ui, -apple-system, sans-serif" font-size="19" font-weight="600" fill="#171717">本地化适配</text>
    <line x1="684" y1="250" x2="916" y2="250" stroke="#EEEEEE" stroke-width="1"/>
    <rect x="684" y="278" width="6" height="1.5" fill="#C19A6B"/>
    <text x="696" y="282" font-family="'PingFang SC', 'Microsoft YaHei', 'Hiragino Sans GB', 'Noto Sans SC', system-ui, -apple-system, sans-serif" font-size="14" fill="#262626">语言表达</text>
    <rect x="684" y="308" width="6" height="1.5" fill="#C19A6B"/>
    <text x="696" y="312" font-family="'PingFang SC', 'Microsoft YaHei', 'Hiragino Sans GB', 'Noto Sans SC', system-ui, -apple-system, sans-serif" font-size="14" fill="#262626">文化语境</text>
    <rect x="684" y="338" width="6" height="1.5" fill="#C19A6B"/>
    <text x="696" y="342" font-family="'PingFang SC', 'Microsoft YaHei', 'Hiragino Sans GB', 'Noto Sans SC', system-ui, -apple-system, sans-serif" font-size="14" fill="#262626">消费习惯</text>
  </g>
  
  <!-- Connector 03-04 -->
  <line x1="940" y1="310" x2="960" y2="310" stroke="#D4D4D4" stroke-width="1" stroke-dasharray="4,3"/>
  <circle cx="950" cy="310" r="2.5" fill="#D4D4D4"/>
  
  <!-- Card 04 -->
  <g>
    <rect x="960" y="160" width="280" height="300" rx="6" fill="#FFFFFF" stroke="#E5E5E5" stroke-width="1"/>
    <rect x="960" y="160" width="280" height="8" rx="6" fill="#8B8680"/>
    <text x="984" y="198" font-family="'SF Mono', 'JetBrains Mono', 'Consolas', 'Menlo', monospace" font-size="11" fill="#A3A3A3" letter-spacing="2">04.</text>
    <circle cx="984" cy="226" r="3.5" fill="#8B8680"/>
    <text x="996" y="231" font-family="'PingFang SC', 'Microsoft YaHei', 'Hiragino Sans GB', 'Noto Sans SC', system-ui, -apple-system, sans-serif" font-size="19" font-weight="600" fill="#171717">内容落地与转化支持</text>
    <line x1="984" y1="250" x2="1216" y2="250" stroke="#EEEEEE" stroke-width="1"/>
    <rect x="984" y="278" width="6" height="1.5" fill="#8B8680"/>
    <text x="996" y="282" font-family="'PingFang SC', 'Microsoft YaHei', 'Hiragino Sans GB', 'Noto Sans SC', system-ui, -apple-system, sans-serif" font-size="14" fill="#262626">商品详情素材</text>
    <rect x="984" y="308" width="6" height="1.5" fill="#8B8680"/>
    <text x="996" y="312" font-family="'PingFang SC', 'Microsoft YaHei', 'Hiragino Sans GB', 'Noto Sans SC', system-ui, -apple-system, sans-serif" font-size="14" fill="#262626">本地化卖点文案</text>
    <rect x="984" y="338" width="6" height="1.5" fill="#8B8680"/>
    <text x="996" y="342" font-family="'PingFang SC', 'Microsoft YaHei', 'Hiragino Sans GB', 'Noto Sans SC', system-ui, -apple-system, sans-serif" font-size="14" fill="#262626">页面内容优化</text>
  </g>
  
  <!-- Outcomes label -->
  <text x="60" y="500" font-family="'SF Mono', 'JetBrains Mono', 'Consolas', 'Menlo', monospace" font-size="10" fill="#A3A3A3" letter-spacing="1.5" text-transform="uppercase">OUTCOMES</text>
  
  <!-- Metric chips -->
  <g>
    <rect x="60" y="515" width="180" height="32" rx="4" fill="#FFFFFF" stroke="#D4D4D4" stroke-width="1"/>
    <text x="150" y="536" font-family="'SF Mono', 'JetBrains Mono', 'Consolas', 'Menlo', monospace" font-size="12" fill="#525252" text-anchor="middle">4h → 30min</text>
  </g>
  <g>
    <rect x="256" y="515" width="200" height="32" rx="4" fill="#FFFFFF" stroke="#D4D4D4" stroke-width="1"/>
    <text x="356" y="536" font-family="'SF Mono', 'JetBrains Mono', 'Consolas', 'Menlo', monospace" font-size="12" fill="#525252" text-anchor="middle">500+ assets / month</text>
  </g>
  <g>
    <rect x="472" y="515" width="200" height="32" rx="4" fill="#FFFFFF" stroke="#D4D4D4" stroke-width="1"/>
    <text x="572" y="536" font-family="'SF Mono', 'JetBrains Mono', 'Consolas', 'Menlo', monospace" font-size="12" fill="#525252" text-anchor="middle">3 brands supported</text>
  </g>
  <g>
    <rect x="688" y="515" width="160" height="32" rx="4" fill="#FFFFFF" stroke="#D4D4D4" stroke-width="1"/>
    <text x="768" y="536" font-family="'SF Mono', 'JetBrains Mono', 'Consolas', 'Menlo', monospace" font-size="12" fill="#525252" text-anchor="middle">5% sales lift</text>
  </g>
</svg>