<svg width="1200" height="540" viewBox="0 0 1200 540" xmlns="http://www.w3.org/2000/svg" preserveAspectRatio="xMidYMid meet">
  <defs>
    <pattern id="dotGrid" x="0" y="0" width="22" height="22" patternUnits="userSpaceOnUse">
      <circle cx="1" cy="1" r="0.7" fill="#D4D4D4" opacity="0.45"/>
    </pattern>
    <style>
      .cn { font-family: 'PingFang SC', 'Microsoft YaHei', 'Hiragino Sans GB', 'Noto Sans SC', system-ui, -apple-system, sans-serif; }
      .mono { font-family: 'SF Mono', 'JetBrains Mono', 'Consolas', 'Menlo', monospace; }
    </style>
  </defs>

  <rect width="1200" height="540" fill="#FAFAF9"/>
  <rect width="1200" height="540" fill="url(#dotGrid)"/>

  <g opacity="0.6">
    <line x1="32" y1="32" x2="48" y2="50" stroke="#D4D4D4" stroke-width="0.6"/>
    <line x1="48" y1="50" x2="22" y2="58" stroke="#D4D4D4" stroke-width="0.6"/>
    <circle cx="32" cy="32" r="2" fill="#7B95B2"/>
    <circle cx="48" cy="50" r="1.4" fill="#A3A3A3"/>
    <circle cx="22" cy="58" r="1.4" fill="#A3A3A3"/>
  </g>

  <g opacity="0.6">
    <line x1="1170" y1="488" x2="1154" y2="506" stroke="#D4D4D4" stroke-width="0.6"/>
    <line x1="1154" y1="506" x2="1182" y2="514" stroke="#D4D4D4" stroke-width="0.6"/>
    <circle cx="1170" cy="488" r="2" fill="#8FAB8A"/>
    <circle cx="1154" cy="506" r="1.4" fill="#A3A3A3"/>
    <circle cx="1182" cy="514" r="1.4" fill="#A3A3A3"/>
  </g>

  <text class="cn" x="60" y="72" font-size="30" font-weight="600" fill="#171717">生成式 AI 用户研究全景图</text>
  <text class="cn" x="60" y="104" font-size="14" font-weight="400" fill="#737373">基于文本挖掘、问卷、访谈与结构方程模型的混合研究</text>

  <g transform="translate(810, 50)">
    <rect x="0" y="0" width="330" height="42" rx="21" fill="#FFFFFF" stroke="#D4D4D4" stroke-width="1"/>
    <g transform="translate(22, 21)">
      <path d="M0,-7.5 L1.77,-2.31 L7.13,-2.31 L2.85,0.88 L4.62,6.07 L0,2.88 L-4.62,6.07 L-2.85,0.88 L-7.13,-2.31 L-1.77,-2.31 Z" fill="#B89968"/>
    </g>
    <text class="cn" x="42" y="27" font-size="13" font-weight="600" fill="#171717">全国一等奖</text>
    <line x1="120" y1="12" x2="120" y2="30" stroke="#E5E5E5" stroke-width="1"/>
    <text class="cn" x="130" y="26" font-size="12" font-weight="400" fill="#525252">第16届全国市场调查与分析大赛</text>
  </g>

  <line x1="60" y1="148" x2="1140" y2="148" stroke="#D4D4D4" stroke-width="1" stroke-dasharray="1 5"/>

  <g id="card-input">
    <rect x="60" y="180" width="320" height="296" rx="6" fill="#FFFFFF" stroke="#E5E5E5" stroke-width="1"/>
    <line x1="60" y1="180" x2="120" y2="180" stroke="#7B95B2" stroke-width="2"/>
    <text class="mono" x="84" y="222" font-size="11" font-weight="500" fill="#A3A3A3" letter-spacing="2">01.</text>
    <circle cx="88" cy="256" r="3.5" fill="#7B95B2"/>
    <text class="cn" x="100" y="261" font-size="20" font-weight="600" fill="#171717">研究输入</text>
    <line x1="84" y1="288" x2="356" y2="288" stroke="#EEEEEE" stroke-width="1"/>

    <g transform="translate(84, 332)">
      <rect x="0" y="-5" width="6" height="1.5" fill="#7B95B2"/>
      <text class="cn" x="14" y="0" font-size="14" font-weight="400" fill="#262626">10,000+ 用户评论</text>
    </g>
    <g transform="translate(84, 376)">
      <rect x="0" y="-5" width="6" height="1.5" fill="#7B95B2"/>
      <text class="cn" x="14" y="0" font-size="14" font-weight="400" fill="#262626">532 份有效问卷</text>
    </g>
    <g transform="translate(84, 420)">
      <rect x="0" y="-5" width="6" height="1.5" fill="#7B95B2"/>
      <text class="cn" x="14" y="0" font-size="14" font-weight="400" fill="#262626">15 位深度访谈对象</text>
    </g>
  </g>

  <g opacity="0.85">
    <line x1="386" y1="328" x2="434" y2="328" stroke="#D4D4D4" stroke-width="1" stroke-dasharray="2 3"/>
    <circle cx="392" cy="328" r="2" fill="#7B95B2"/>
    <circle cx="410" cy="328" r="1.6" fill="#A3A3A3"/>
    <circle cx="428" cy="328" r="2" fill="#8FAB8A"/>
  </g>

  <g id="card-analysis">
    <rect x="440" y="180" width="320" height="296" rx="6" fill="#FFFFFF" stroke="#E5E5E5" stroke-width="1"/>
    <line x1="440" y1="180" x2="500" y2="180" stroke="#8FAB8A" stroke-width="2"/>
    <text class="mono" x="464" y="222" font-size="11" font-weight="500" fill="#A3A3A3" letter-spacing="2">02.</text>
    <circle cx="468" cy="256" r="3.5" fill="#8FAB8A"/>
    <text class="cn" x="480" y="261" font-size="20" font-weight="600" fill="#171717">研究分析</text>
    <line x1="464" y1="288" x2="736" y2="288" stroke="#EEEEEE" stroke-width="1"/>

    <g transform="translate(464, 322)">
      <rect x="0" y="-5" width="6" height="1.5" fill="#8FAB8A"/>
      <text class="cn" x="14" y="0" font-size="14" font-weight="400" fill="#262626">文本挖掘</text>
    </g>
    <g transform="translate(464, 354)">
      <rect x="0" y="-5" width="6" height="1.5" fill="#8FAB8A"/>
      <text class="cn" x="14" y="0" font-size="14" font-weight="400" fill="#262626">情感分析</text>
    </g>
    <g transform="translate(464, 386)">
      <rect x="0" y="-5" width="6" height="1.5" fill="#8FAB8A"/>
      <text class="cn" x="14" y="0" font-size="14" font-weight="400" fill="#262626">K-means++ 聚类</text>
    </g>
    <g transform="translate(464, 418)">
      <rect x="0" y="-5" width="6" height="1.5" fill="#8FAB8A"/>
      <text class="cn" x="14" y="0" font-size="14" font-weight="400" fill="#262626">SEM / SmartPLS</text>
    </g>
  </g>

  <g opacity="0.85">
    <line x1="766" y1="328" x2="814" y2="328" stroke="#D4D4D4" stroke-width="1" stroke-dasharray="2 3"/>
    <circle cx="772" cy="328" r="2" fill="#8FAB8A"/>
    <circle cx="790" cy="328" r="1.6" fill="#A3A3A3"/>
    <circle cx="808" cy="328" r="2" fill="#A89060"/>
  </g>

  <g id="card-output">
    <rect x="820" y="180" width="320" height="296" rx="6" fill="#FFFFFF" stroke="#E5E5E5" stroke-width="1"/>
    <line x1="820" y1="180" x2="880" y2="180" stroke="#A89060" stroke-width="2"/>
    <text class="mono" x="844" y="222" font-size="11" font-weight="500" fill="#A3A3A3" letter-spacing="2">03.</text>
    <circle cx="848" cy="256" r="3.5" fill="#A89060"/>
    <text class="cn" x="860" y="261" font-size="20" font-weight="600" fill="#171717">研究输出</text>
    <line x1="844" y1="288" x2="1116" y2="288" stroke="#EEEEEE" stroke-width="1"/>

    <g transform="translate(844, 322)">
      <rect x="0" y="-5" width="6" height="1.5" fill="#A89060"/>
      <text class="cn" x="14" y="0" font-size="14" font-weight="400" fill="#262626">5 类核心用户</text>
    </g>
    <g transform="translate(844, 354)">
      <rect x="0" y="-5" width="6" height="1.5" fill="#A89060"/>
      <text class="cn" x="14" y="0" font-size="14" font-weight="400" fill="#262626">4 类潜在用户</text>
    </g>
    <g transform="translate(844, 386)">
      <rect x="0" y="-5" width="6" height="1.5" fill="#A89060"/>
      <text class="cn" x="14" y="0" font-size="14" font-weight="400" fill="#262626">使用驱动因素</text>
    </g>
    <g transform="translate(844, 418)">
      <rect x="0" y="-5" width="6" height="1.5" fill="#A89060"/>
      <text class="cn" x="14" y="0" font-size="14" font-weight="400" fill="#262626">市场策略洞察</text>
    </g>
  </g>
</svg>
